<svg width="25" height="24" viewBox="0 0 25 24" fill="none" xmlns="http://www.w3.org/2000/svg">
<path d="M4.048 20.938H20.948C21.0806 20.938 21.2078 20.8853 21.3016 20.7915C21.3953 20.6978 21.448 20.5706 21.448 20.438C21.448 20.3054 21.3953 20.1782 21.3016 20.0844C21.2078 19.9907 21.0806 19.938 20.948 19.938H4.048C3.9154 19.938 3.78822 19.9907 3.69445 20.0844C3.60068 20.1782 3.548 20.3054 3.548 20.438C3.548 20.5706 3.60068 20.6978 3.69445 20.7915C3.78822 20.8853 3.9154 20.938 4.048 20.938ZM10.21 17.18C10.6322 17.0612 11.0175 16.8376 11.33 16.53L20.87 6.98999C21.1967 6.662 21.3801 6.21793 21.3801 5.75499C21.3801 5.29205 21.1967 4.84798 20.87 4.51999L19.93 3.58999C19.5971 3.2727 19.1549 3.0957 18.695 3.0957C18.2351 3.0957 17.7929 3.2727 17.46 3.58999L7.92 13.12C7.61237 13.4309 7.39169 13.8171 7.28 14.24L6.54 17C6.50521 17.1261 6.50447 17.2591 6.53784 17.3856C6.57122 17.5121 6.63752 17.6275 6.73 17.72C6.87172 17.8589 7.06159 17.9377 7.26 17.94L10.21 17.18ZM10.62 15.82C10.4356 16.0076 10.2042 16.1423 9.95 16.21L8.98 16.47L7.98 15.47L8.24 14.5C8.30905 14.2463 8.44354 14.0153 8.63 13.83L9.01 13.46L11 15.45L10.62 15.82ZM11.71 14.74L9.72 12.75L16.45 6.01999L18.44 8.00999L11.71 14.74ZM20.16 6.28999L19.15 7.29999L17.16 5.30999L18.17 4.28999C18.3106 4.14954 18.5013 4.07065 18.7 4.07065C18.8988 4.07065 19.0894 4.14954 19.23 4.28999L20.16 5.22999C20.2995 5.37113 20.3777 5.56156 20.3777 5.75999C20.3777 5.95842 20.2995 6.14885 20.16 6.28999Z" fill="black"/>
</svg>
